<?xml version="1.0" standalone="no"?>
<!DOCTYPE svg PUBLIC "-//W3C//DTD SVG 20010904//EN"
 "http://www.w3.org/TR/2001/REC-SVG-20010904/DTD/svg10.dtd">
<svg version="1.0" xmlns="http://www.w3.org/2000/svg"
 width="353.000000pt" height="353.000000pt" viewBox="0 0 353.000000 353.000000"
 preserveAspectRatio="xMidYMid meet">
<metadata>
Created by potrace 1.11, written by Peter Selinger 2001-2013
</metadata>
<g transform="translate(0.000000,353.000000) scale(0.100000,-0.100000)"
fill="#000000" stroke="none">
<path d="M1186 3509 c-114 -27 -233 -129 -289 -246 -32 -67 -32 -70 -35 -245
l-4 -178 -102 0 c-170 0 -274 -39 -367 -137 -27 -29 -64 -83 -82 -120 l-32
-68 -3 -772 c-3 -850 -2 -863 57 -967 40 -69 113 -137 192 -177 60 -30 74 -33
220 -42 l157 -10 22 -46 c57 -119 184 -256 324 -350 73 -50 241 -141 259 -141
5 0 -14 25 -43 56 -96 106 -185 294 -205 436 l-7 48 505 0 c337 0 524 4 559
11 170 36 306 175 337 343 6 33 11 122 11 198 l0 138 98 0 c56 0 123 7 157 15
124 32 226 119 287 243 l33 67 0 820 0 821 -38 76 c-43 89 -112 157 -203 203
l-59 30 -855 2 c-494 1 -871 -3 -894 -8z m1163 -688 c113 -35 214 -119 261
-217 49 -100 50 -110 50 -756 l0 -608 -416 0 -416 0 7 -42 c29 -172 92 -309
203 -444 l52 -64 -56 25 c-152 67 -336 201 -427 310 -43 53 -117 164 -129 196
-2 4 -71 11 -154 16 -136 9 -158 13 -215 40 -134 63 -226 186 -249 333 -11 74
-13 509 -3 938 l6 292 713 0 c671 0 716 -1 773 -19z"/>
</g>
</svg>
